<?xml version="1.0" encoding="UTF-8" standalone="no"?>
<!DOCTYPE svg PUBLIC "-//W3C//DTD SVG 1.1//EN" "http://www.w3.org/Graphics/SVG/1.1/DTD/svg11.dtd">
<svg width="100%" height="100%" viewBox="0 0 500 500" version="1.1" xmlns="http://www.w3.org/2000/svg" xmlns:xlink="http://www.w3.org/1999/xlink" xml:space="preserve" xmlns:serif="http://www.serif.com/" style="fill-rule:evenodd;clip-rule:evenodd;stroke-linecap:round;stroke-linejoin:round;stroke-miterlimit:1.5;">
    <g id="Logo" transform="matrix(0.925926,0,0,0.925926,0,0)">
        <rect x="0" y="0" width="540" height="540" style="fill:none;"/>
        <clipPath id="_clip1">
            <rect x="0" y="0" width="540" height="540"/>
        </clipPath>
        <g clip-path="url(#_clip1)">
            <g id="Stroke" transform="matrix(1.15,0,0,1.15,-40.5,-40.5)">
                <g transform="matrix(1.08,0,0,1.08,6.13909e-14,7.10543e-15)">
                    <path d="M250,400L250,450" style="fill:none;stroke:white;stroke-width:34.78px;"/>
                </g>
                <g transform="matrix(1.08,0,0,1.08,6.13909e-14,7.10543e-15)">
                    <path d="M121.377,327.174L83.333,350" style="fill:none;stroke:white;stroke-width:34.78px;"/>
                </g>
                <g transform="matrix(1.08,0,0,1.08,6.13909e-14,7.10543e-15)">
                    <path d="M250,100L250,50" style="fill:none;stroke:white;stroke-width:34.78px;"/>
                </g>
                <g transform="matrix(1.08,0,0,1.08,6.13909e-14,7.10543e-15)">
                    <path d="M378.623,172.826L416.667,150" style="fill:none;stroke:white;stroke-width:34.78px;"/>
                </g>
                <g transform="matrix(1.08,0,0,1.08,6.13909e-14,7.10543e-15)">
                    <path d="M378.623,327.174L416.667,350" style="fill:none;stroke:white;stroke-width:34.78px;"/>
                </g>
                <g transform="matrix(4.73141,0,0,4.73141,-304.284,-547.712)">
                    <path d="M83.333,150L121.377,172.826" style="fill:none;stroke:white;stroke-width:7.94px;"/>
                </g>
            </g>
            <g id="Center" transform="matrix(1.242,0,0,1.242,-40.5,-40.5)">
                <circle cx="250" cy="250" r="100" style="fill:white;"/>
            </g>
        </g>
    </g>
</svg>
